<svg id="visual" viewBox="0 0 900 600" width="900" height="600" xmlns="http://www.w3.org/2000/svg" xmlns:xlink="http://www.w3.org/1999/xlink" version="1.1"><path d="M0 85L18.8 80C37.7 75 75.3 65 112.8 63C150.3 61 187.7 67 225.2 65C262.7 63 300.3 53 337.8 46C375.3 39 412.7 35 450.2 38C487.7 41 525.3 51 562.8 55C600.3 59 637.7 57 675.2 56C712.7 55 750.3 55 787.8 58C825.3 61 862.7 67 881.3 70L900 73L900 0L881.3 0C862.7 0 825.3 0 787.8 0C750.3 0 712.7 0 675.2 0C637.7 0 600.3 0 562.8 0C525.3 0 487.7 0 450.2 0C412.7 0 375.3 0 337.8 0C300.3 0 262.7 0 225.2 0C187.7 0 150.3 0 112.8 0C75.3 0 37.7 0 18.8 0L0 0Z" fill="#fa7268"></path><path d="M0 157L18.8 149C37.7 141 75.3 125 112.8 122C150.3 119 187.7 129 225.2 125C262.7 121 300.3 103 337.8 100C375.3 97 412.7 109 450.2 116C487.7 123 525.3 125 562.8 125C600.3 125 637.7 123 675.2 119C712.7 115 750.3 109 787.8 106C825.3 103 862.7 103 881.3 103L900 103L900 71L881.3 68C862.7 65 825.3 59 787.8 56C750.3 53 712.7 53 675.2 54C637.7 55 600.3 57 562.8 53C525.3 49 487.7 39 450.2 36C412.7 33 375.3 37 337.8 44C300.3 51 262.7 61 225.2 63C187.7 65 150.3 59 112.8 61C75.3 63 37.7 73 18.8 78L0 83Z" fill="#f16367"></path><path d="M0 235L18.8 245C37.7 255 75.3 275 112.8 288C150.3 301 187.7 307 225.2 290C262.7 273 300.3 233 337.8 218C375.3 203 412.7 213 450.2 236C487.7 259 525.3 295 562.8 313C600.3 331 637.7 331 675.2 311C712.7 291 750.3 251 787.8 239C825.3 227 862.7 243 881.3 251L900 259L900 101L881.3 101C862.7 101 825.3 101 787.8 104C750.3 107 712.7 113 675.2 117C637.7 121 600.3 123 562.8 123C525.3 123 487.7 121 450.2 114C412.7 107 375.3 95 337.8 98C300.3 101 262.7 119 225.2 123C187.7 127 150.3 117 112.8 120C75.3 123 37.7 139 18.8 147L0 155Z" fill="#e85467"></path><path d="M0 343L18.8 359C37.7 375 75.3 407 112.8 417C150.3 427 187.7 415 225.2 398C262.7 381 300.3 359 337.8 347C375.3 335 412.7 333 450.2 341C487.7 349 525.3 367 562.8 380C600.3 393 637.7 401 675.2 393C712.7 385 750.3 361 787.8 350C825.3 339 862.7 341 881.3 342L900 343L900 257L881.3 249C862.7 241 825.3 225 787.8 237C750.3 249 712.7 289 675.2 309C637.7 329 600.3 329 562.8 311C525.3 293 487.7 257 450.2 234C412.7 211 375.3 201 337.8 216C300.3 231 262.7 271 225.2 288C187.7 305 150.3 299 112.8 286C75.3 273 37.7 253 18.8 243L0 233Z" fill="#de4467"></path><path d="M0 499L18.8 508C37.7 517 75.3 535 112.8 535C150.3 535 187.7 517 225.2 510C262.7 503 300.3 507 337.8 510C375.3 513 412.7 515 450.2 518C487.7 521 525.3 525 562.8 524C600.3 523 637.7 517 675.2 518C712.7 519 750.3 527 787.8 536C825.3 545 862.7 555 881.3 560L900 565L900 341L881.3 340C862.7 339 825.3 337 787.8 348C750.3 359 712.7 383 675.2 391C637.7 399 600.3 391 562.8 378C525.3 365 487.7 347 450.2 339C412.7 331 375.3 333 337.8 345C300.3 357 262.7 379 225.2 396C187.7 413 150.3 425 112.8 415C75.3 405 37.7 373 18.8 357L0 341Z" fill="#d23467"></path><path d="M0 601L18.8 601C37.7 601 75.3 601 112.8 601C150.3 601 187.7 601 225.2 601C262.7 601 300.3 601 337.8 601C375.3 601 412.7 601 450.2 601C487.7 601 525.3 601 562.8 601C600.3 601 637.7 601 675.2 601C712.7 601 750.3 601 787.8 601C825.3 601 862.7 601 881.3 601L900 601L900 563L881.3 558C862.7 553 825.3 543 787.8 534C750.3 525 712.7 517 675.2 516C637.7 515 600.3 521 562.8 522C525.3 523 487.7 519 450.2 516C412.7 513 375.3 511 337.8 508C300.3 505 262.7 501 225.2 508C187.7 515 150.3 533 112.8 533C75.3 533 37.7 515 18.8 506L0 497Z" fill="#c62368"></path></svg>